<svg width="269" height="225" viewBox="0 0 269 225" fill="none" xmlns="http://www.w3.org/2000/svg">
<path d="M131.775 8.05818C131.775 13.9043 129.879 20.8565 124.349 34.4447C120.399 44.715 116.449 56.0912 115.817 60.0413C113.289 73.6296 118.819 88.4819 130.669 100.174L137.937 107.284L135.409 100.332C131.301 88.4819 132.249 72.9976 138.569 53.8792C141.571 44.557 144.099 33.9707 144.099 30.1787C144.099 21.6465 140.465 10.7442 135.409 4.74011L131.617 7.62939e-06L131.775 8.05818Z" fill="#D17842"/>
<path d="M100.806 50.0872C92.1162 61.3055 89.4301 76.4738 94.1702 85.796C96.6983 90.5361 106.968 100.332 112.499 103.334C115.659 105.072 115.659 104.598 111.393 98.2783C108.865 94.6442 105.388 88.324 103.808 84.374C100.332 75.3678 100.174 58.7774 103.492 50.7192C106.652 43.4511 105.862 43.2931 100.806 50.0872Z" fill="#D17842"/>
<path d="M259.508 92.088C258.11 92.6729 252.282 93.9596 246.687 94.8954C241.093 95.8312 234.216 97.3518 231.302 98.1706C226.873 99.5743 226.058 100.276 225.358 103.551C224.892 105.657 224.892 107.295 225.242 107.295C225.475 107.295 229.321 106.008 233.633 104.487C237.946 102.85 244.823 100.978 248.902 100.276C252.981 99.5743 257.527 98.6385 259.042 98.2876C260.557 97.9367 261.606 98.1706 261.606 98.9894C261.606 99.8083 258.459 105.657 254.73 112.09C251 118.524 246.221 127.882 244.123 133.029C237.713 148.82 230.02 152.914 218.598 146.48C215.917 144.843 213.353 143.556 213.12 143.556C212.071 143.556 209.157 150.808 209.857 151.861C211.255 154.201 218.365 156.423 223.96 156.423C235.149 156.306 244.939 148.703 247.62 137.941C249.252 131.508 251.699 126.595 261.257 110.57C265.336 103.551 268.833 96.533 268.949 94.7784C269.182 91.9711 268.716 91.5032 265.686 91.2692C263.821 91.1523 261.023 91.5032 259.508 92.088Z" fill="white"/>
<path d="M1.10602 97.1721C6.63614 144.731 38.5528 182.178 84.0578 194.344C97.9621 198.136 125.455 198.136 139.359 194.344C184.706 182.02 216.623 144.731 222.153 97.8041L222.943 89.904L219.151 97.8041C209.354 117.871 192.922 128.615 170.328 129.879C153.579 130.827 145.205 128.457 115.5 114.394C77.8957 96.5401 54.0372 90.062 18.3284 88.0079L0 87.0599L1.10602 97.1721Z" fill="white"/>
<path d="M8.37368 197.188C9.6377 198.294 37.9203 205.878 50.0866 208.248C92.5895 216.464 147.575 215.2 187.549 205.088C203.982 200.822 213.936 197.82 213.146 197.188C212.83 196.872 200.506 197.978 185.811 199.558C133.354 205.562 78.8432 205.246 29.7041 198.768C11.8498 196.556 7.26765 196.082 8.37368 197.188Z" fill="white"/>
<path d="M55.3005 217.097C65.4127 221.363 90.6932 224.997 111.708 224.997C132.88 224.997 161.321 220.889 167.641 216.939C169.537 215.833 169.221 215.675 166.219 216.307C141.254 221.363 91.7993 221.363 57.1965 216.307C52.4564 215.517 52.1404 215.675 55.3005 217.097Z" fill="white"/>
</svg>
